<mxfile host="65bd71144e">
    <diagram id="WwwbxcCQsFMpgHdxGmWG" name="Page-1">
        <mxGraphModel dx="880" dy="485" grid="1" gridSize="10" guides="1" tooltips="1" connect="1" arrows="1" fold="1" page="1" pageScale="1" pageWidth="827" pageHeight="1169" math="0" shadow="0">
            <root>
                <mxCell id="0"/>
                <mxCell id="1" parent="0"/>
                <mxCell id="2" value="data_provider&lt;br&gt;main_menu()&amp;nbsp;" style="rounded=0;whiteSpace=wrap;html=1;" vertex="1" parent="1">
                    <mxGeometry x="340" y="50" width="120" height="60" as="geometry"/>
                </mxCell>
                <mxCell id="3" value="file_worker" style="rounded=0;whiteSpace=wrap;html=1;" vertex="1" parent="1">
                    <mxGeometry x="170" y="160" width="120" height="60" as="geometry"/>
                </mxCell>
                <mxCell id="4" value="data_finder" style="rounded=0;whiteSpace=wrap;html=1;" vertex="1" parent="1">
                    <mxGeometry x="360" y="170" width="120" height="60" as="geometry"/>
                </mxCell>
                <mxCell id="5" value="data_checker" style="rounded=0;whiteSpace=wrap;html=1;" vertex="1" parent="1">
                    <mxGeometry x="110" y="50" width="120" height="60" as="geometry"/>
                </mxCell>
            </root>
        </mxGraphModel>
    </diagram>
</mxfile>